<?xml version="1.0" encoding="utf-8"?>
<!-- Generator: Adobe Illustrator 25.2.3, SVG Export Plug-In . SVG Version: 6.00 Build 0)  -->
<svg version="1.1" id="Layer_1" xmlns="http://www.w3.org/2000/svg" xmlns:xlink="http://www.w3.org/1999/xlink" x="0px" y="0px"
	 viewBox="0 0 444 174" style="enable-background:new 0 0 444 174;" xml:space="preserve">
<style type="text/css">
	.st0{fill:#020202;}
</style>
<path class="st0" d="M77,19"/>
<path class="st0" d="M77,19v141.6h40.2V80.1L157,127l41-49v82.6h18l20.6-70.8H216c6-23.6,12-47.2,18-70.8c-9.7,0-19.3,0-29,0
	c-15.7,18-31.3,36-47,54l-42.9-54H77z"/>
<path class="st0" d="M274.8,19L254,64h24.2L216,160.6h68.3c0-27.3,0-54.6,0-81.9c0-19.9,0-39.8,0-59.7C281.2,19,278,19,274.8,19z"/>
<path class="st0" d="M321,19c3.4-0.1,6.1,0.5,8,1c1.8,0.5,3.2,1,6,2c2.2,0.8,3.4,1.2,5,2c3.3,1.5,5.7,3.1,7,4c0.6,0.4,2.6,1.9,5,4
	c0.9,0.8,1.9,1.7,3,3c0.8,0.8,1.9,2.2,3,4c0.9,1.3,2,3.3,3,6c2.8,7.2,2.8,14,3,14c0.1,0,0-1,0-1c0,0,0.5,4.5,0,9.2
	c-0.5,4.7-1.7,8.2-3,11.9c-1.3,3.6-2.1,6-4,8.9c-0.8,1.2-2.7,4.1-6,7c-4.1,3.6-8,5.2-12,7c-1.8,0.8-5,2-9,3c-2.3,0.6-4.1,0.9-5,1
	c-24,3.7-26-5.3-31-9.9c-6.8-6.2-9.1-7.4-3-11.9c2.6-1.9,1.1-2.9,12-3c6.5,0,6,0,6,0c0.9,0,1.2,0.1,1.2,0c0-0.1-2.4,0.9-4.2-0.2
	c-0.2-0.1-1.1-0.6-1-1c0.2-0.9,6.3,1.5,12-1c3.1-1.3,4.7-3.6,5-4c1.2-1.7,1.6-3.3,2-5c0.2-1,1.1-4.9,0-10c-0.3-1.5-0.8-3.5-2-5.7
	c-0.7-1.3-2.7-4.8-7-7c-0.4-0.2-1.9-0.9-4-1.3c-4.2-0.8-8,0.1-8,0c0-0.1,2-0.3,2-0.7c0-0.5-3-1.1-6-1.3c-5.6-0.4-8.1,1-10.5-0.9
	c-0.4-0.3-0.5-1.1-1.5-1.7c-6.8-4.3-7.8-12.5-1-16.9c2-1.3,0.9-5.4,12-5c11.9,0.4,14,0.9,19,0C317.8,19.4,319.1,19.1,321,19z"/>
<path class="st0" d="M304,52"/>
<rect x="284.3" y="19" class="st0" width="38.5" height="27"/>
<rect x="279" y="79.8" class="st0" width="39" height="27"/>
<path class="st0" d="M329,53"/>
</svg>
