<?xml version="1.0" encoding="utf-8"?>
<!-- Generator: Adobe Illustrator 25.2.3, SVG Export Plug-In . SVG Version: 6.00 Build 0)  -->
<svg version="1.1" id="Layer_1" xmlns="http://www.w3.org/2000/svg" xmlns:xlink="http://www.w3.org/1999/xlink" x="0px" y="0px"
	 viewBox="0 0 207 116" style="enable-background:new 0 0 207 116;" xml:space="preserve">
<style type="text/css">
	.st0{fill:#020202;}
</style>
<path class="st0" d="M35,19"/>
<path class="st0" d="M35,19v68h19.3V48.3l19.1,22.5l19.7-23.5V87h8.6l9.9-34h-9.9c2.9-11.3,5.8-22.7,8.6-34c-4.6,0-9.3,0-13.9,0
	c-7.5,8.6-15,17.3-22.6,25.9L53.3,19H35z"/>
<path class="st0" d="M130,19l-10,21.6h11.6L101.8,87h32.8c0-13.1,0-26.2,0-39.3c0-9.6,0-19.1,0-28.7C133.1,19,131.5,19,130,19z"/>
<path class="st0" d="M152.2,19c1.6-0.1,2.9,0.3,3.8,0.5c0.9,0.2,1.5,0.5,2.9,1c1,0.4,1.6,0.6,2.4,1c1.6,0.7,2.7,1.5,3.4,1.9
	c0.3,0.2,1.3,0.9,2.4,1.9c0.4,0.4,0.9,0.8,1.4,1.4c0.4,0.4,0.9,1.1,1.4,1.9c0.4,0.6,0.9,1.6,1.4,2.9c1.3,3.4,1.4,6.7,1.4,6.7
	c0,0,0-0.5,0-0.5c0,0,0.2,2.1,0,4.4c-0.2,2.3-0.8,3.9-1.4,5.7c-0.6,1.7-1,2.9-1.9,4.3c-0.4,0.6-1.3,2-2.9,3.3
	c-2,1.7-3.8,2.5-5.8,3.3c-0.9,0.4-2.4,1-4.3,1.4c-1.1,0.3-2,0.4-2.4,0.5c-11.5,1.8-12.5-2.6-14.9-4.8c-3.3-3-4.4-3.6-1.4-5.7
	c1.3-0.9,0.5-1.4,5.8-1.4c3.1,0,2.9,0,2.9,0c0.4,0,0.6,0,0.6,0c0,0-1.1,0.4-2-0.1c-0.1-0.1-0.5-0.3-0.5-0.5c0.1-0.5,3,0.7,5.8-0.5
	c1.5-0.6,2.3-1.7,2.4-1.9c0.6-0.8,0.8-1.6,1-2.4c0.1-0.5,0.5-2.4,0-4.8c-0.2-0.7-0.4-1.7-1-2.7c-0.3-0.6-1.3-2.3-3.4-3.3
	c-0.2-0.1-0.9-0.4-1.9-0.6c-2-0.4-3.8,0.1-3.8,0c0,0,1-0.1,1-0.3c0-0.2-1.4-0.5-2.9-0.6c-2.7-0.2-3.9,0.5-5.1-0.4
	c-0.2-0.1-0.2-0.5-0.7-0.8c-3.3-2.1-3.7-6-0.5-8.1c1-0.6,0.4-2.6,5.8-2.4c5.7,0.2,6.7,0.4,9.1,0C150.7,19.2,151.3,19,152.2,19z"/>
<path class="st0" d="M144,34.8"/>
<rect x="134.6" y="19" class="st0" width="18.5" height="13"/>
<rect x="132" y="48.2" class="st0" width="18.7" height="13"/>
<path class="st0" d="M156,35.3"/>
</svg>
